# xmcd
#
# Track frame offsets: 
#        150
#        18922
#        32212
#        47957
#        60395
#        75897
#        89230
#        104562
#        120322
#        140630
#        164435
#
# Disc length: 2460 seconds
#
# Revision: 5
# Processed by: cddbd v1.5.2PL0 Copyright (c) Steve Scherf et al.
# Submitted via: ExactAudioCopyFreeDBPlugin 1.0
#
DISCID=8e099a0b
DTITLE=Ben Harper and The Innocent Criminals - Lifeline Tour Edition
DYEAR=2007
DGENRE=Soul
TTITLE0=Fight Outta You
TTITLE1=In The Colors
TTITLE2=Fool For A Lonesome Train
TTITLE3=Needed You Tonight
TTITLE4=Having Wings
TTITLE5=Say You Will
TTITLE6=Younger Than Today
TTITLE7=Put It On Me
TTITLE8=Heart Of Matters
TTITLE9=Paris Sunrise #7
TTITLE10=Lifeline
EXTD=
EXTT0=
EXTT1=
EXTT2=
EXTT3=
EXTT4=
EXTT5=
EXTT6=
EXTT7=
EXTT8=
EXTT9=
EXTT10=
PLAYORDER=
